<svg xmlns="http://www.w3.org/2000/svg" viewBox="0 0 512 512">
  <defs>
    <linearGradient id="grad1" x1="0%" y1="0%" x2="100%" y2="100%">
      <stop offset="0%" style="stop-color:#6c5ce7;stop-opacity:1" />
      <stop offset="100%" style="stop-color:#a29bfe;stop-opacity:1" />
    </linearGradient>
  </defs>
  <path d="M256 0c-44.2 0-80 35.8-80 80v48h-32c-17.7 0-32 14.3-32 32v224c0 17.7 14.3 32 32 32h224c17.7 0 32-14.3 32-32V160c0-17.7-14.3-32-32-32h-32V80c0-44.2-35.8-80-80-80zm0 48c17.7 0 32 14.3 32 32v48H224V80c0-17.7 14.3-32 32-32z" fill="url(#grad1)"/>
  <path d="M256 0L32 96l16 224c3 42 22 81 53 109 41 38 96 61 155 61 59 0 114-23 155-61 31-28 50-67 53-109l16-224L256 0z" fill="none" stroke="#fff" stroke-width="20" stroke-linecap="round" stroke-linejoin="round" transform="scale(0.8) translate(64,64)"/>
  <path d="M256 200a56 56 0 1 0 0 112 56 56 0 1 0 0-112zm0 80a24 24 0 1 1 0-48 24 24 0 1 1 0 48z" fill="#fff"/>
</svg>
