<svg xmlns="http://www.w3.org/2000/svg" viewBox="0 0 800 600" width="800" height="600">
  <defs>
    <linearGradient id="bg" x1="0%" y1="0%" x2="100%" y2="100%">
      <stop offset="0%" style="stop-color:#050505;stop-opacity:1" />
      <stop offset="100%" style="stop-color:#0a0f14;stop-opacity:1" />
    </linearGradient>
  </defs>
  <rect width="800" height="600" fill="url(#bg)"/>
  <g transform="translate(400,300)">
    <!-- Chip body -->
    <rect x="-150" y="-100" width="300" height="200" fill="#0a0f14" stroke="#00f0ff" stroke-width="3"/>
    <!-- Circuit patterns -->
    <line x1="-130" y1="-80" x2="-130" y2="80" stroke="#00f0ff" stroke-width="2"/>
    <line x1="-100" y1="-80" x2="-100" y2="80" stroke="#00f0ff" stroke-width="2"/>
    <line x1="-70" y1="-80" x2="-70" y2="80" stroke="#00f0ff" stroke-width="2"/>
    <line x1="70" y1="-80" x2="70" y2="80" stroke="#00f0ff" stroke-width="2"/>
    <line x1="100" y1="-80" x2="100" y2="80" stroke="#00f0ff" stroke-width="2"/>
    <line x1="130" y1="-80" x2="130" y2="80" stroke="#00f0ff" stroke-width="2"/>
    <!-- Horizontal circuits -->
    <line x1="-130" y1="-60" x2="130" y2="-60" stroke="#00f0ff" stroke-width="1"/>
    <line x1="-130" y1="-30" x2="130" y2="-30" stroke="#00f0ff" stroke-width="1"/>
    <line x1="-130" y1="0" x2="130" y2="0" stroke="#00f0ff" stroke-width="1"/>
    <line x1="-130" y1="30" x2="130" y2="30" stroke="#00f0ff" stroke-width="1"/>
    <line x1="-130" y1="60" x2="130" y2="60" stroke="#00f0ff" stroke-width="1"/>
    <!-- Central processor -->
    <rect x="-40" y="-40" width="80" height="80" fill="#00f0ff" opacity="0.3" stroke="#00f0ff" stroke-width="2"/>
    <circle cx="0" cy="0" r="20" fill="#00f0ff" opacity="0.6"/>
    <!-- Pins -->
    <rect x="-160" y="-15" width="10" height="5" fill="#00f0ff"/>
    <rect x="-160" y="10" width="10" height="5" fill="#00f0ff"/>
    <rect x="150" y="-15" width="10" height="5" fill="#00f0ff"/>
    <rect x="150" y="10" width="10" height="5" fill="#00f0ff"/>
  </g>
</svg>
